<svg xmlns="http://www.w3.org/2000/svg" viewBox="0 0 110 115">
  <rect x="10" y="22" width="90" height="82" rx="10" fill="#e0f2fe" stroke="#0ea5e9" stroke-width="3"/>
  <path d="M10,32 Q10,22 20,22 L90,22 Q100,22 100,32 L100,42 L10,42 Z" fill="#f97316" stroke="#ea580c" stroke-width="3"/>
  <line x1="10" y1="42" x2="100" y2="42" stroke="#0ea5e9" stroke-width="2"/>
  <line x1="33" y1="42" x2="33" y2="104" stroke="#0ea5e9" stroke-width="2.5" opacity="0.5"/>
  <line x1="15" y1="60" x2="95" y2="60" stroke="#0ea5e9" stroke-width="2.5" opacity="0.4"/>
  <line x1="15" y1="76" x2="95" y2="76" stroke="#0ea5e9" stroke-width="2.5" opacity="0.4"/>
  <line x1="15" y1="92" x2="95" y2="92" stroke="#0ea5e9" stroke-width="2.5" opacity="0.4"/>
  <rect x="24" y="11" width="12" height="19" rx="6" fill="#0ea5e9" stroke="#0284c7" stroke-width="2"/>
  <rect x="44" y="11" width="12" height="19" rx="6" fill="#0ea5e9" stroke="#0284c7" stroke-width="2"/>
  <rect x="64" y="11" width="12" height="19" rx="6" fill="#0ea5e9" stroke="#0284c7" stroke-width="2"/>
  <rect x="84" y="11" width="12" height="19" rx="6" fill="#0ea5e9" stroke="#0284c7" stroke-width="2"/>
</svg>
